<svg width="126" height="67" viewBox="0 0 126 67" fill="none" xmlns="http://www.w3.org/2000/svg">
<path d="M46.38 35.8372C44.71 35.8372 43.11 35.7972 41.67 35.7272C37.38 35.5372 34.02 31.9872 34.02 27.6672V9.81724L35.48 9.90724C35.56 9.90724 43.32 10.4072 45.86 10.4072C48.99 10.4072 54.22 9.99724 59.28 9.60724C63.07 9.30724 66.68 9.02724 69.08 8.94724C75.96 8.69724 81.42 9.45724 81.65 9.48724L82.84 9.64724V34.9372L81.39 34.8572C81.3 34.8572 72.91 34.3772 69.77 34.3772C67.2 34.3772 62.62 34.7472 58.18 35.1072C53.7 35.4672 49.06 35.8472 46.38 35.8472V35.8372ZM36.76 12.7372V27.6672C36.76 30.5172 38.97 32.8572 41.79 32.9872C43.19 33.0472 44.75 33.0972 46.38 33.0972C48.95 33.0972 53.53 32.7272 57.96 32.3672C62.44 32.0072 67.08 31.6272 69.77 31.6272C72.21 31.6272 77.51 31.8872 80.09 32.0272V12.0672C78.14 11.8672 73.98 11.5372 69.17 11.6872C66.8 11.7672 63.23 12.0472 59.49 12.3372C54.38 12.7372 49.09 13.1472 45.86 13.1472C43.9 13.1472 39.18 12.8772 36.77 12.7372H36.76Z" fill="white"/>
<path d="M76.5501 15.1973C76.5501 15.1973 74.3901 15.0473 72.7001 15.0073C71.0101 14.9673 68.6201 15.0073 68.6101 15.0073L68.5801 13.1773C68.5801 13.1773 71.0201 13.1373 72.7401 13.1773C74.4701 13.2173 76.6801 13.3773 76.6801 13.3773L76.5501 15.2073V15.1973Z" fill="white"/>
<path d="M47.1701 30.8973C45.3201 30.8973 43.8201 29.3973 43.8201 27.5473C43.8201 25.6973 45.3201 24.1973 47.1701 24.1973C49.0201 24.1973 50.5201 25.6973 50.5201 27.5473C50.5201 29.3973 49.0201 30.8973 47.1701 30.8973ZM47.1701 26.0173C46.3301 26.0173 45.6501 26.6973 45.6501 27.5373C45.6501 28.3773 46.3301 29.0573 47.1701 29.0573C48.0101 29.0573 48.6901 28.3773 48.6901 27.5373C48.6901 26.6973 48.0101 26.0173 47.1701 26.0173Z" fill="white"/>
<path d="M62.09 30.4273C60.24 30.4273 58.74 28.9273 58.74 27.0773C58.74 25.2273 60.24 23.7273 62.09 23.7273C63.94 23.7273 65.44 25.2273 65.44 27.0773C65.44 28.9273 63.94 30.4273 62.09 30.4273ZM62.09 25.5473C61.25 25.5473 60.57 26.2273 60.57 27.0673C60.57 27.9073 61.25 28.5873 62.09 28.5873C62.93 28.5873 63.61 27.9073 63.61 27.0673C63.61 26.2273 62.93 25.5473 62.09 25.5473Z" fill="white"/>
<path d="M85.87 4.80733C85.64 4.77733 80.18 4.05733 73.3 4.26733C70.9 4.34733 67.3 4.62733 63.52 4.92733C58.45 5.32733 53.21 5.72733 50.08 5.72733C47.54 5.72733 39.78 5.23733 39.7 5.22733L38.24 5.13733V7.83733C40.75 7.97733 44.29 8.16733 45.86 8.16733C48.99 8.16733 54.22 7.75733 59.28 7.36733C63.07 7.06733 66.69 6.84733 69.08 6.70733C75.63 6.33733 83.41 7.29733 84.31 7.38733V30.3873L87.06 30.4173V4.97733L85.87 4.81733V4.80733Z" fill="white"/>
<path d="M90.34 0.587294C90.11 0.557294 84.65 -0.192706 77.77 0.0472938C75.37 0.127294 71.76 0.407294 67.97 0.707294C62.91 1.10729 57.68 1.50729 54.55 1.50729C52.01 1.50729 44.25 1.01729 44.17 1.00729L42.71 0.917294V3.57729C45.02 3.70729 47.71 3.83729 49.02 3.83729C52.15 3.83729 57.38 3.42729 62.44 3.03729C66.23 2.73729 69.85 2.53729 72.24 2.37729C79.2 1.91729 87.78 3.06729 88.78 3.17729V5.79729H88.8V25.5973L91.53 25.6173V0.747294L90.34 0.587294Z" fill="white"/>
<path d="M66.2801 21.0772C64.2201 20.0972 60.5501 18.7372 59.8201 17.9172C58.2501 16.1672 57.5301 15.7972 56.6401 15.4272C55.2501 14.8472 50.9301 14.0672 46.1501 15.6772C41.5301 17.2272 41.0601 20.1572 40.9401 21.7472C40.6001 26.1572 43.7901 28.9472 44.4201 29.4472C43.6801 28.5072 41.3701 24.8472 42.0301 21.7772C42.4301 19.9172 43.7101 17.7972 46.2901 16.9672C47.5401 16.5672 49.4501 16.2072 50.8401 16.0472C50.5101 17.0372 50.5701 18.8072 50.9401 19.3072C48.4401 19.7172 43.9201 20.9572 43.9201 20.9572C43.9201 20.9572 48.6001 19.9872 53.1101 19.7372C56.0901 19.5772 58.7501 19.7972 60.6201 20.1272C62.8801 20.5272 65.2001 21.5272 66.1801 22.2072C68.7401 24.0072 67.1301 28.1172 66.3901 28.5772C66.7701 28.3472 68.2701 27.6772 68.5901 25.6472C68.9401 23.3672 67.9001 21.8572 66.2901 21.0872L66.2801 21.0772ZM52.4001 19.0572C51.9101 18.2372 51.6801 17.3072 51.8101 15.9372C54.2201 15.7772 55.5901 16.0072 56.4501 16.4872C57.5301 17.0772 58.4201 18.1972 58.9701 18.8972C57.6301 18.7172 56.2001 18.7672 55.0201 18.8372C53.4601 18.9372 52.5101 19.0472 52.4001 19.0572Z" fill="white"/>
<path d="M53.7 23.0773C53.19 23.0773 52.74 22.7573 52.49 22.6073C52.66 22.6073 53.18 22.6273 53.7 22.5873C54.23 22.5573 54.58 22.4673 54.76 22.4073C54.72 22.5573 54.47 23.0973 53.69 23.0873L53.7 23.0773Z" fill="white"/>
<path d="M8.83 66.5273C6.33 66.5273 4.23 65.7173 2.52 64.0973C0.84 62.4573 0 60.3873 0 57.8673C0 55.3473 0.83 53.2773 2.5 51.6573C4.15 50.0173 6.25 49.1873 8.8 49.1873C10.5 49.1873 12.02 49.5573 13.34 50.3073V52.9573C11.99 52.0873 10.48 51.6473 8.83 51.6473C7.08 51.6473 5.61 52.2373 4.44 53.4173C3.28 54.5773 2.7 56.0673 2.7 57.8673C2.7 59.6673 3.29 61.1573 4.47 62.3273C5.65 63.4873 7.14 64.0673 8.94 64.0673C10.85 64.0673 12.44 63.5573 13.71 62.5273V65.1773C12.31 66.0673 10.68 66.5173 8.82 66.5173L8.83 66.5273Z" fill="white"/>
<path d="M17.34 66.1972H14.55L21.83 49.3772H24.36L31.69 66.1772H28.87L27.05 62.0272H19.12L17.33 66.1972H17.34ZM23.08 52.6972L20.03 59.7272H26.14L23.07 52.6972H23.08Z" fill="white"/>
<path d="M35.4701 66.1772H32.8401L32.8101 49.4572H40.4301C42.1501 49.4472 43.5001 49.8772 44.4701 50.7572C45.4601 51.6472 45.9501 52.7972 45.9601 54.1972C45.9601 55.3572 45.6401 56.3472 45.0001 57.1772C44.3601 57.9972 43.4701 58.5472 42.3401 58.8172L47.6101 66.1672H44.4301L39.3801 59.1072H35.4601L35.4701 66.1872V66.1772ZM35.4501 51.8672V56.7872H40.2801C41.2401 56.7872 41.9801 56.5672 42.5101 56.1372C43.0401 55.7072 43.3101 55.0972 43.3101 54.2972C43.3101 53.4972 43.0401 52.9372 42.5101 52.5072C41.9801 52.0772 41.2301 51.8672 40.2801 51.8672H35.4601H35.4501Z" fill="white"/>
<path d="M56.5899 66.2372H54.1099L46.8899 49.4372H49.7999L55.3599 62.6072L60.8799 49.4172H63.7199L56.5799 66.2372H56.5899Z" fill="white"/>
<path d="M78.0601 66.1072L65.8501 66.1272L65.8201 49.4072L77.7201 49.3872V51.7972L68.4601 51.8072V55.9872L76.0101 55.9772V58.3872L68.4701 58.3972V63.6972L78.0601 63.6872V66.0972V66.1072Z" fill="white"/>
<path d="M83.15 66.0973H80.57L80.54 49.3773H82.83L92.28 61.4673L92.26 49.3573H94.84L94.87 66.0773H92.65L83.12 53.9373L83.14 66.0973H83.15Z" fill="white"/>
<path d="M96.9499 51.7673V49.3573L110.63 49.3373V51.7473H105.09L105.11 66.0573H102.48L102.46 51.7573H96.9399L96.9499 51.7673Z" fill="white"/>
<path d="M111.19 66.0573H108.39L115.67 49.2373H118.2L125.53 66.0373H122.71L120.89 61.8873H112.96L111.18 66.0573H111.19ZM116.93 52.5573L113.88 59.5873H119.99L116.92 52.5573H116.93Z" fill="white"/>
</svg>
