<svg width="64" height="65" viewBox="0 0 64 65" fill="none" xmlns="http://www.w3.org/2000/svg">
<path d="M37.1947 26.637C38.6023 26.3509 40.1123 26.9673 41.591 27.8357C43.1908 28.7749 44.808 29.7065 46.6823 29.9913C46.9282 30.028 47.1778 30.0394 47.4236 30.0697C47.919 30.1292 48.1823 29.9292 48.3008 29.4166C48.5704 28.2597 49.2992 27.5078 50.3998 27.104C51.6314 26.6534 52.8506 26.1661 54.0848 25.7243C55.8992 25.075 57.5414 25.8547 58.1928 27.7002C60.0646 33 61.9227 38.3036 63.7696 43.611C64.4222 45.4881 63.651 47.1248 61.8129 47.8437C60.6112 48.3146 59.397 48.7538 58.194 49.2222C57.0497 49.6677 55.9878 49.5424 55.0307 48.7564C54.7761 48.5475 54.5864 48.5323 54.3144 48.7083C53.3847 49.3082 52.4463 49.893 51.5017 50.4689C51.2446 50.6259 51.146 50.831 51.0849 51.1221C50.6568 53.1714 49.4676 54.2447 47.4361 54.3713C47.0692 54.3941 46.9881 54.5523 46.9095 54.8384C46.3903 56.7105 45.2735 57.6446 43.3892 57.7421C43.0173 57.7611 42.8963 57.9269 42.8039 58.2471C42.2499 60.1597 41.2216 61.0078 39.2188 61.1546C38.7558 61.1888 38.7621 61.4976 38.6809 61.7862C38.0483 64.014 35.8932 65.1456 33.8417 64.3216C33.6882 64.2596 33.5372 64.1836 33.3949 64.0988C32.746 63.7127 32.5276 63.1381 32.8072 62.5685C33.0842 62.0065 33.6757 61.8546 34.3608 62.1723C35.2131 62.5672 35.9568 62.4027 36.4023 61.7204C36.8603 61.0192 36.723 60.1762 36.0367 59.5699C35.1744 58.8079 34.3009 58.0585 33.4386 57.2978C33.1092 57.0067 32.892 56.6434 32.9981 56.1826C33.1004 55.7396 33.3874 55.446 33.8279 55.3245C34.2647 55.2042 34.5979 55.4232 34.9024 55.6877C35.9918 56.6345 37.0737 57.5889 38.1593 58.5408C38.7421 59.0522 39.3411 59.1496 39.9401 58.8344C40.5191 58.5294 40.7861 57.9395 40.715 57.1775C40.6738 56.7434 40.4417 56.4371 40.1347 56.1687C39.2999 55.4384 38.4663 54.7093 37.6302 53.9802C37.005 53.4347 36.9027 52.8094 37.3544 52.2803C37.7974 51.7613 38.3815 51.755 39.0029 52.2904C40.0811 53.2182 41.143 54.165 42.2212 55.0916C43.051 55.8054 43.8559 55.7915 44.4773 55.0776C45.0651 54.4017 44.9615 53.4093 44.2003 52.7258C43.3755 51.9853 42.5219 51.2765 41.6946 50.5398C41.1455 50.05 41.0369 49.4601 41.3739 48.9753C41.7657 48.4095 42.4633 48.3386 43.0622 48.8437C44.0044 49.6399 44.9266 50.4601 45.8575 51.2702C46.0784 51.4626 46.2918 51.6638 46.5239 51.841C47.2065 52.3638 47.919 52.3296 48.498 51.7588C49.0234 51.2411 49.1145 50.3576 48.6864 49.7259C48.5592 49.5373 48.3944 49.3677 48.2222 49.2184C44.3862 45.883 40.5465 42.5528 36.7093 39.22C36.5046 39.0415 36.29 38.8707 36.1053 38.6719C35.6773 38.2125 35.6561 37.6226 36.0342 37.1872C36.4036 36.7606 36.9389 36.6796 37.4381 37.0353C37.8449 37.3252 38.213 37.6707 38.5923 37.9998C42.3048 41.2212 46.011 44.4502 49.7359 47.6589C50.0366 47.9184 50.1901 48.4779 50.6431 48.4057C51.005 48.3488 51.3295 48.0298 51.6664 47.8222C52.1992 47.4931 52.7221 47.1476 53.2624 46.8311C53.6006 46.6337 53.7266 46.4172 53.5819 46.0084C52.0033 41.5427 50.4385 37.0733 48.8761 32.6026C48.7713 32.3013 48.6053 32.1469 48.2809 32.1747C45.7564 32.3912 43.4703 31.557 41.4525 30.1824C39.3685 28.7622 37.1685 28.6749 34.8387 28.9014C33.8891 28.9938 32.9332 29.028 31.9798 29.0926C31.4308 29.1293 30.9853 29.3837 30.6309 29.7989C28.5881 32.1886 26.5416 34.5759 24.51 36.9758C24.0658 37.4998 24.1219 37.9859 24.6086 38.4884C25.6443 39.5567 27.3564 39.7453 28.5394 38.8124C29.8198 37.8036 30.9628 36.629 32.1258 35.4822C32.3255 35.2847 32.4066 35.0189 32.4528 34.7442C32.4915 34.5164 32.5214 34.2848 32.5788 34.062C32.7423 33.4316 33.2015 33.0734 33.7368 33.1418C34.3184 33.2165 34.699 33.6911 34.6515 34.3658C34.5717 35.4873 34.2659 36.5075 33.3874 37.2948C32.313 38.258 31.2898 39.282 30.2141 40.244C28.0977 42.1376 24.8557 41.9655 22.9502 39.8833C21.8171 38.6441 21.7971 36.853 22.889 35.5708C24.8457 33.2734 26.8348 31.0014 28.7353 28.6559C29.9009 27.2167 31.4133 26.8534 33.1129 26.8129C34.3595 26.7838 35.6037 26.7078 37.1922 26.637H37.1947ZM55.2041 27.6357C55.0444 27.6876 54.8447 27.7445 54.6513 27.8179C53.502 28.2496 52.3527 28.6825 51.2059 29.1191C50.426 29.4153 50.2188 29.8292 50.4796 30.6444C50.7629 31.5254 51.0736 32.3975 51.3794 33.2709C52.913 37.6378 54.4454 42.0047 55.9878 46.3691C56.321 47.3121 56.6891 47.4703 57.605 47.126C58.7156 46.7096 59.8275 46.2982 60.9344 45.8704C61.8603 45.5134 62.0363 45.1211 61.7018 44.1629C60.7123 41.3225 59.7164 38.4833 58.7219 35.6442C57.9008 33.3013 57.0734 30.9608 56.2573 28.6166C56.0801 28.1091 55.8368 27.6964 55.2029 27.6369L55.2041 27.6357Z" fill="#333333"/>
<path d="M19.5099 31.6709C18.277 31.6798 17.0604 31.5266 15.8674 31.2305C15.3969 31.1127 15.201 31.2418 15.0438 31.6937C13.5576 35.9682 12.0663 40.2402 10.5377 44.4996C10.3118 45.1299 10.4391 45.4096 11.0331 45.6122C11.5035 45.7729 11.9603 45.9919 12.397 46.2337C12.7951 46.4539 13.0809 46.3615 13.4003 46.0742C14.2863 45.2767 15.1835 44.4907 16.0982 43.7262C18.1086 42.0452 20.8626 42.7515 21.8547 45.2033C21.987 45.5312 22.0756 45.7274 22.5086 45.6463C24.8858 45.2059 26.6965 46.5564 27.0022 49.0006C27.0571 49.4411 27.1794 49.6399 27.6299 49.7614C29.6602 50.3095 30.8245 52.5284 30.1107 54.5511C29.901 55.146 29.9247 55.4004 30.4801 55.7751C32.3456 57.0358 32.6227 59.8104 31.0291 61.4141C29.9996 62.4508 28.8878 63.4241 27.716 64.2912C25.4311 65.9835 22.3576 64.4861 22.0194 61.5495C21.9645 61.0711 21.8173 60.8723 21.3543 60.7445C19.8219 60.3192 18.8086 58.9901 18.7313 57.356C18.7125 56.9586 18.6115 56.7864 18.1922 56.6877C16.6024 56.3143 15.5192 54.9903 15.3894 53.3005C15.3595 52.9106 15.2647 52.7144 14.8628 52.598C13.1158 52.0866 12.1462 50.8234 12.0638 48.9374C12.0476 48.5576 11.9465 48.3703 11.6084 48.2336C11.0106 47.9906 10.4229 47.7197 9.84386 47.4324C9.54562 47.2843 9.33847 47.2893 9.07018 47.5298C8.13177 48.3716 7.0586 48.564 5.8781 48.1146C4.63272 47.6412 3.3786 47.1881 2.13946 46.7007C0.348749 45.9957 -0.417449 44.3413 0.223961 42.4971C2.06958 37.1897 3.92892 31.8861 5.80074 26.5876C6.46461 24.7079 8.10432 23.9396 9.95742 24.6079C11.1716 25.0446 12.3746 25.513 13.5838 25.9636C14.7468 26.3965 15.5092 27.1977 15.7413 28.4483C15.8175 28.8584 15.9847 29.071 16.3952 29.1495C18.6938 29.5862 20.9712 29.7204 23.2037 28.8014C23.905 28.5128 24.4877 28.7331 24.7261 29.3242C24.9594 29.9014 24.6911 30.4685 24.0011 30.7849C22.5735 31.438 21.0636 31.6709 19.5087 31.6735L19.5099 31.6709ZM6.90261 46.1463C7.59519 46.1716 7.8248 45.7868 7.98827 45.3236C8.54857 43.7363 9.10886 42.1503 9.66667 40.5617C10.9345 36.9492 12.2061 33.338 13.4627 29.7217C13.8333 28.6533 13.6486 28.304 12.5942 27.9053C11.4848 27.485 10.378 27.0597 9.2636 26.6522C8.50364 26.3737 8.08061 26.5661 7.80857 27.3407C5.94923 32.619 4.09613 37.8985 2.24927 43.1806C1.97723 43.9603 2.2031 44.4135 2.97928 44.7109C4.1448 45.1578 5.31531 45.5944 6.48457 46.0299C6.65803 46.0944 6.84147 46.1311 6.90261 46.1476V46.1463ZM22.3751 58.6977C22.6883 58.7357 23.0165 58.5927 23.3147 58.3307C24.0684 57.6699 24.8321 57.0219 25.5884 56.3649C26.3134 55.7346 27.0609 55.1295 27.7447 54.4561C28.3474 53.8637 28.3212 52.9132 27.7697 52.2803C27.3017 51.7436 26.4606 51.5803 25.9103 52.041C24.3255 53.3663 22.7632 54.7207 21.232 56.108C20.7428 56.551 20.6929 57.1889 20.9762 57.8028C21.232 58.3585 21.6513 58.7003 22.3738 58.6977H22.3751ZM18.9734 54.6295C19.2766 54.646 19.5698 54.5852 19.797 54.389C21.3643 53.0372 22.9404 51.6967 24.4728 50.3057C25.038 49.793 24.9881 48.8196 24.484 48.2285C23.9936 47.6513 23.1188 47.4982 22.5148 48.0032C20.96 49.3032 19.4326 50.6373 17.9314 52.0005C17.436 52.4499 17.4247 53.1068 17.6681 53.7081C17.8977 54.2764 18.3569 54.589 18.9734 54.6308V54.6295ZM19.9854 46.5501C19.9479 45.9514 19.7108 45.4388 19.1331 45.1413C18.5466 44.8388 17.9925 44.9413 17.5046 45.3527C16.6099 46.1071 15.7289 46.8805 14.8479 47.6526C14.0916 48.3146 13.9868 49.2968 14.5846 50.0107C15.1598 50.698 15.9997 50.731 16.7946 50.0601C17.6893 49.3057 18.5665 48.5285 19.4451 47.7539C19.792 47.4488 19.9617 47.0488 19.9854 46.5501ZM29.8761 58.8585C29.9073 58.218 29.629 57.7509 29.1061 57.4396C28.612 57.1459 28.0729 57.1497 27.6411 57.5054C26.5942 58.3648 25.5634 59.2471 24.5763 60.1762C23.9749 60.7432 24.0248 61.7457 24.5826 62.3482C25.1154 62.9229 25.9577 62.9887 26.6041 62.4508C27.5338 61.6774 28.4348 60.8698 29.3457 60.0736C29.7126 59.7534 29.9048 59.3496 29.8761 58.8598V58.8585Z" fill="#333333"/>
<path d="M57.0021 16.7513C57.0021 17.6791 57.0071 18.6069 57.0009 19.5347C56.9896 21.0055 56.0163 22.1004 54.5837 22.2662C54.0184 22.3308 53.4981 21.965 53.367 21.4093C53.2522 20.9232 53.5105 20.3233 54.0446 20.2169C54.8832 20.0486 54.9618 19.5233 54.9244 18.8297C54.8907 18.2196 54.8882 17.6044 54.9256 16.9956C54.9568 16.4791 54.7522 16.3095 54.273 16.3589C53.0638 16.4842 52.0767 16.0614 51.2881 15.1209C50.8388 14.5855 50.8001 13.9729 51.2294 13.54C51.6574 13.1084 52.2963 13.1058 52.7768 13.6185C53.2522 14.1248 53.8025 14.2855 54.4614 14.2526C54.8158 14.2349 54.9481 14.1235 54.8695 13.7488C54.6898 12.8944 54.2355 12.3147 53.397 12.0312C50.7552 11.1363 48.1259 10.2059 45.4804 9.32749C44.688 9.06421 44.0204 8.66043 43.4114 8.0921C41.9402 6.72 40.3292 5.52638 38.6932 4.36313C36.9512 3.1252 34.9895 2.57586 32.923 2.34169C30.597 2.07841 28.2734 2.14929 25.9736 2.59611C24.2116 2.93787 22.6617 3.81632 21.1143 4.68464C20.151 5.22639 19.1589 5.7289 18.2505 6.35546C16.5409 7.53642 14.5705 7.98704 12.635 8.53639C12.026 8.70853 11.8002 8.99966 11.8126 9.64394C11.8451 11.2084 11.8176 11.2097 13.3638 11.2097C13.5921 11.2097 13.8217 11.1996 14.0501 11.2148C14.669 11.2553 15.0659 11.6692 15.0671 12.2654C15.0696 12.8603 14.674 13.2944 14.0551 13.3147C13.3276 13.3387 12.5988 13.3425 11.8725 13.3185C11.4208 13.3033 11.2374 13.4932 11.1987 13.9336C11.0751 15.3437 11.0764 16.7551 11.0739 18.1677C11.0739 18.6233 11.2985 18.8474 11.6691 19.0271C12.63 19.4917 12.902 19.9777 12.61 20.6397C12.323 21.2891 11.7228 21.4042 10.7881 20.9992C9.59766 20.4828 8.93878 19.6233 8.99119 18.2588C9.05358 16.6386 8.87888 15.0108 9.12471 13.3957C9.16963 13.1046 9.17962 12.7881 9.3044 12.5337C9.81479 11.5046 9.73492 10.4072 9.73867 9.31357C9.74366 7.82122 10.4 6.94911 11.7989 6.54026C12.8771 6.22508 13.9652 5.94028 15.0297 5.5846C16.325 5.15171 17.3944 4.27453 18.5849 3.63278C20.4916 2.60497 22.2986 1.34553 24.4112 0.784789C28.5193 -0.303776 32.6373 -0.263271 36.7153 0.961997C38.7469 1.5721 40.3916 2.90116 42.06 4.15807C43.1444 4.97576 44.2014 5.83143 45.1735 6.78709C45.3918 7.00227 45.6626 7.09594 45.9384 7.19087C48.6363 8.11362 51.3355 9.03257 54.0297 9.96544C55.9614 10.635 56.9921 12.1033 56.9996 14.1602C57.0021 15.0247 56.9996 15.8893 56.9996 16.7538L57.0021 16.7513Z" fill="#333333"/>
<path d="M46.2931 26.4851C43.4505 26.4775 41.1843 24.132 41.1993 21.2106C41.2143 18.2689 43.4966 16.0045 46.4329 16.0184C49.2144 16.0323 51.5168 18.4309 51.4881 21.2878C51.4594 24.1864 49.1545 26.4914 46.2931 26.4838V26.4851ZM43.3631 21.2675C43.3706 22.9814 44.6834 24.3459 46.3356 24.3586C47.964 24.3712 49.3143 22.9713 49.3168 21.265C49.3192 19.5486 48.014 18.1689 46.3643 18.1423C44.7121 18.1158 43.3556 19.5284 43.3631 21.2675Z" fill="#333333"/>
<path d="M19.6783 26.4838C16.8294 26.4863 14.527 24.1585 14.5108 21.2599C14.4958 18.3803 16.8181 16.0146 19.6583 16.0171C22.5347 16.0196 24.7983 18.3195 24.7996 21.2397C24.7996 24.1674 22.5422 26.48 19.6783 26.4825V26.4838ZM22.6358 21.265C22.6395 19.5245 21.2868 18.117 19.6334 18.1436C17.9837 18.1702 16.6796 19.5499 16.6834 21.2663C16.6871 22.97 18.0336 24.3674 19.6658 24.3598C21.308 24.3522 22.6333 22.9725 22.637 21.265H22.6358Z" fill="#333333"/>
<path d="M29.8213 9.77811C26.6418 9.77811 23.4622 9.77811 20.2826 9.77938C19.9257 9.77938 19.5775 9.77431 19.2942 9.49711C18.9773 9.18573 18.8725 8.80979 19.0085 8.39968C19.1607 7.93894 19.4964 7.6706 19.993 7.66807C21.0949 7.66174 22.1956 7.66427 23.2974 7.663C24.6689 7.663 26.0403 7.65035 27.4117 7.66807C27.8659 7.6744 28.0032 7.5339 27.8859 7.07062C27.7524 6.54153 27.66 5.99851 27.5976 5.45676C27.5153 4.74286 27.8697 4.24668 28.4749 4.15048C29.0302 4.06314 29.5156 4.43275 29.6691 5.09728C29.8151 5.7327 29.9486 6.37318 30.0447 7.01746C30.1171 7.50352 30.333 7.67566 30.8284 7.67186C33.696 7.65035 36.5636 7.65921 39.4325 7.66427C40.1638 7.66427 40.5806 7.98324 40.6517 8.5655C40.739 9.28319 40.2848 9.77052 39.4862 9.77305C37.0341 9.78064 34.582 9.77685 32.1299 9.77685C31.3612 9.77685 30.5925 9.77685 29.8226 9.77685L29.8213 9.77811Z" fill="#333333"/>
<path d="M32.9931 22.689C31.3098 22.689 29.6276 22.6928 27.9442 22.6877C27.1294 22.6852 26.6814 22.3004 26.6826 21.6257C26.6851 20.9536 27.1306 20.5777 27.9542 20.5764C31.3197 20.5726 34.6853 20.5726 38.0508 20.5764C38.8707 20.5764 39.3162 20.9625 39.3124 21.6358C39.3087 22.3092 38.8657 22.6839 38.0408 22.6864C36.3574 22.6915 34.6753 22.6877 32.9919 22.6877L32.9931 22.689Z" fill="#333333"/>
<path d="M31.8974 13.5678C31.5031 13.5678 31.1075 13.5881 30.7145 13.564C30.1417 13.5286 29.7411 13.0982 29.7274 12.5451C29.7137 11.9704 30.128 11.492 30.7232 11.473C31.5106 11.4464 32.3018 11.4439 33.0892 11.4768C33.6632 11.5008 34.0376 11.9502 34.0363 12.5223C34.0351 13.0932 33.6582 13.521 33.0817 13.5628C32.6898 13.5906 32.293 13.5678 31.8987 13.5691L31.8974 13.5678Z" fill="#333333"/>
</svg>
