<svg width="65" height="65" viewBox="0 0 65 65" fill="none" xmlns="http://www.w3.org/2000/svg">
<path d="M0.00126103 50.2186C0.00126103 47.6783 0.00126103 45.138 0.00267968 42.5977C0.00267968 41.6445 0.0182849 41.6346 0.934737 41.629C2.24936 41.6205 2.90572 42.2776 2.90383 43.6002C2.90383 48.2572 2.90383 52.9142 2.90383 57.5712C2.90383 60.2414 4.45868 61.8031 7.18817 61.8116C12.2684 61.8285 17.3486 61.8172 22.4302 61.8186C23.1273 61.8186 23.4758 62.1684 23.4758 62.8678C23.4758 64.2817 22.7721 64.9901 21.3648 64.993C16.7329 64.9944 12.101 64.9972 7.47049 64.993C3.1294 64.9873 0.00693565 61.8751 0.00126103 57.557C-0.00157628 55.1113 0.00126103 52.6642 0.00126103 50.2186Z" fill="#333333"/>
<path d="M0.00126103 14.701C0.00126103 12.2539 -0.00157628 9.8082 0.00126103 7.3611C0.00977297 3.04302 2.9393 0.0536851 7.28464 0.0197956C12.3904 -0.0197421 17.4947 0.0197956 22.6005 2.67518e-05C23.2786 -0.00279737 23.5481 0.217484 23.4843 0.896686C23.4389 1.38667 23.4658 1.88372 23.4715 2.37794C23.4758 2.73378 23.3041 2.89334 22.9523 2.88628C22.7395 2.88063 22.5267 2.89052 22.3139 2.89052C17.3982 2.89052 12.4812 2.89334 7.56554 2.88769C6.94558 2.88769 6.33556 2.94276 5.7454 3.11927C3.97634 3.64738 2.90951 5.17947 2.90525 7.22272C2.89674 12.2341 2.90241 17.2441 2.90099 22.2555C2.90099 22.9964 2.526 23.3673 1.776 23.3682C0.594732 23.3692 0.00315257 22.786 0.00126103 21.6187C-0.000157628 19.3128 0.00126103 17.0083 0.00126103 14.7024V14.701Z" fill="#333333"/>
<path d="M50.1692 64.9944C47.5929 64.9944 45.0181 64.9944 42.4418 64.9929C41.514 64.9929 41.4657 64.9393 41.4544 64.0553C41.4383 62.7591 42.0838 62.1095 43.3909 62.1067C48.1646 62.1053 52.937 62.1067 57.7108 62.1053C58.8329 62.1053 59.8544 61.8186 60.7283 61.0829C61.7965 60.1849 62.1029 58.9931 62.1029 57.6714C62.1029 52.7786 62.1029 47.8872 62.1029 42.9944C62.1029 41.9199 62.1058 41.9057 63.1967 41.9199C65.2098 41.9439 64.9814 41.5923 64.9871 43.7273C64.9998 48.3137 64.98 52.9 64.9942 57.4864C65.0013 59.8686 64.3175 61.9316 62.3739 63.4566C60.9978 64.5368 59.4032 64.9774 57.6824 64.9901C55.1785 65.0099 52.6731 64.9958 50.1678 64.9944H50.1692Z" fill="#333333"/>
<path d="M50.0586 2.89053C47.4823 2.89053 44.9046 2.86793 42.3283 2.90465C41.6261 2.91453 41.4289 2.66177 41.4431 2.00516C41.4871 0.111589 41.2856 0.313514 43.0987 0.309278C47.8029 0.300806 52.5072 0.309278 57.2115 0.305042C59.8331 0.302218 62.0987 1.05343 63.6862 3.27743C64.6736 4.66125 64.9758 6.24276 64.9814 7.89063C64.9956 12.7608 64.9772 17.631 64.9985 22.5026C65.0013 23.1847 64.7686 23.4431 64.0919 23.3725C63.6947 23.3315 63.2861 23.3329 62.8875 23.3725C62.2448 23.4374 62.0888 23.1508 62.0916 22.5549C62.1101 17.6367 62.1001 12.7199 62.103 7.80167C62.103 7.14083 62.0633 6.47999 61.8873 5.84456C61.3851 4.02159 59.8587 2.91312 57.7874 2.89476C55.2111 2.87358 52.6349 2.88911 50.0572 2.88911V2.88629L50.0586 2.89053Z" fill="#333333"/>
<path d="M33.2986 49.4391C27.9573 49.4391 22.6161 49.4433 17.2763 49.4363C15.4292 49.4335 13.2743 47.6684 12.8841 45.8736C12.8274 45.6124 12.8316 45.3498 12.8316 45.0871C12.8302 42.2602 12.8529 39.4332 12.8189 36.6077C12.8061 35.5656 13.06 34.652 13.6786 33.8146C13.907 33.5054 14.3411 33.1764 14.2248 32.8234C14.1226 32.5099 13.5878 32.4704 13.2473 32.3037C12.799 32.0849 12.3323 31.8999 11.8882 31.6711C10.7803 31.0978 10.3986 29.8919 10.9675 28.7948C11.1222 28.4954 11.2839 28.1975 11.4711 27.9179C11.9081 27.2655 12.528 26.9083 13.3182 26.8871C13.9651 26.8701 14.6135 26.8772 15.2604 26.8842C15.764 26.8899 16.0775 27.1709 16.0846 27.603C16.0917 28.052 15.7711 28.3415 15.2419 28.3486C14.683 28.3556 14.124 28.3401 13.5651 28.3556C12.982 28.3711 12.1776 29.2325 12.2131 29.8072C12.233 30.1193 12.4557 30.2901 12.7267 30.4116C13.68 30.8366 14.6277 31.2715 15.5824 31.6923C16.3073 32.0114 16.4336 32.4548 15.9825 33.11C15.5753 33.7017 15.1866 34.306 14.7752 34.8963C14.4517 35.3594 14.3085 35.8706 14.3085 36.4255C14.307 39.2807 14.3056 42.1373 14.3085 44.9925C14.3085 45.803 14.6475 46.4187 15.2817 46.9595C16.1882 47.7333 17.1756 47.9946 18.3601 47.9917C28.4979 47.9607 38.6356 47.9578 48.7733 47.9917C50.1125 47.996 51.019 47.3323 51.883 46.4992C52.2816 46.1151 52.3809 45.5743 52.3824 45.0363C52.388 42.1515 52.388 39.2666 52.3824 36.3804C52.3824 35.8424 52.2334 35.3439 51.9185 34.8949C51.49 34.282 51.08 33.6565 50.6601 33.038C50.2799 32.4788 50.4118 32.0016 51.0275 31.7248C51.9795 31.2969 52.9328 30.8747 53.8833 30.4441C54.5316 30.1503 54.5728 29.9032 54.2876 29.2735C53.9613 28.5533 53.4591 28.2667 52.6831 28.3401C52.2462 28.3824 51.8007 28.357 51.3595 28.3429C50.8999 28.3288 50.5977 28.021 50.6048 27.6002C50.6105 27.1991 50.9055 26.8927 51.3411 26.8857C52.0617 26.8729 52.7824 26.88 53.5031 26.8899C53.6478 26.8913 53.7897 26.9464 53.9344 26.969C55.0211 27.1427 56.1914 29.1478 55.9616 30.1503C55.7999 30.8564 55.4084 31.376 54.7614 31.6881C54.0862 32.0143 53.4038 32.3249 52.7129 32.6158C52.3951 32.7499 52.3497 32.8869 52.5569 33.1637C52.8207 33.5153 53.0548 33.8881 53.2931 34.258C53.6591 34.8257 53.8563 35.4427 53.8563 36.1234C53.8535 39.1692 53.8563 42.2164 53.8549 45.2622C53.8549 46.1179 53.5669 46.8748 52.9938 47.5074C52.4079 48.1555 51.6986 48.6596 50.9382 49.0776C50.4303 49.3572 49.8657 49.4447 49.2769 49.4433C43.9513 49.4349 38.6242 49.4391 33.2986 49.4377V49.4391Z" fill="#333333"/>
<path d="M50.4969 30.3014C50.4898 30.6446 50.3337 30.8945 50.0089 31.0131C49.64 31.1473 49.3322 31.0159 49.1222 30.7109C48.7406 30.156 48.332 29.6166 48.0284 29.0108C47.1942 27.3474 46.3345 25.6953 45.5287 24.0178C45.0904 23.1042 44.4165 22.6184 43.4078 22.5549C42.1169 22.473 40.8287 22.3544 39.5378 22.2837C37.6878 22.1835 35.8379 22.0719 33.9865 22.0423C32.5041 22.0197 31.0173 22.1002 29.5348 22.1609C28.3162 22.2103 27.0976 22.2866 25.8818 22.3685C24.9142 22.4334 23.9496 22.5238 22.9834 22.6071C22.1564 22.6777 21.6088 23.1324 21.2484 23.854C20.3901 25.571 19.5233 27.2839 18.6636 29.0009C18.353 29.6208 17.9415 30.1743 17.5415 30.7349C17.2833 31.0978 16.8662 31.1586 16.5271 30.9411C16.1782 30.7166 16.059 30.2704 16.3158 29.899C17.6536 27.9715 18.5842 25.8266 19.5843 23.7297C20.4313 21.9533 21.7123 21.116 23.6687 20.9945C27.6749 20.746 31.6784 20.441 35.696 20.5737C37.9134 20.6472 40.1293 20.7743 42.3396 20.9762C42.9539 21.0327 43.5724 21.0454 44.181 21.1555C45.2422 21.349 46.0806 21.9025 46.5856 22.8429C47.4368 24.4315 48.2341 26.0483 49.0413 27.6595C49.3776 28.3288 49.7294 28.9854 50.1748 29.5912C50.328 29.8001 50.4969 30.0148 50.4955 30.3014H50.4969Z" fill="#333333"/>
<path d="M33.2985 31.8632C29.1206 31.8632 24.9412 31.8632 20.7633 31.8632C20.41 31.8632 20.0568 31.8575 19.7135 31.7615C19.2936 31.6429 19.051 31.297 19.1176 30.9129C19.1843 30.5316 19.4865 30.2916 19.9093 30.3029C28.38 30.5175 36.8537 30.3339 45.3259 30.3975C45.7827 30.4003 46.2338 30.3594 46.6878 30.3113C47.1716 30.2619 47.4964 30.5034 47.5674 30.9129C47.6355 31.3111 47.3815 31.6472 46.9276 31.77C46.597 31.8604 46.2594 31.8632 45.9203 31.8632C41.7126 31.8632 37.5048 31.8632 33.2971 31.8632H33.2985Z" fill="#333333"/>
<path d="M33.3426 42.3463C35.4011 42.3463 37.4595 42.3435 39.5166 42.3463C40.5962 42.3478 41.1409 42.8928 41.1438 43.9646C41.1452 44.5054 41.1452 45.0476 41.1438 45.5884C41.1424 46.2973 40.9182 46.6136 40.4174 46.6207C39.9096 46.6277 39.6712 46.3072 39.6698 45.6096C39.6698 45.258 39.6698 44.9078 39.6698 44.5562C39.667 43.74 39.7436 43.8135 38.9463 43.8135C35.594 43.8121 32.2431 43.8135 28.8908 43.8135C28.4496 43.8135 28.0056 43.8431 27.5687 43.805C27.1033 43.7641 26.9799 43.9476 27.0111 44.3811C27.0452 44.8612 27.0253 45.347 27.0154 45.8285C27.0055 46.3284 26.7175 46.6249 26.2706 46.6207C25.8266 46.6164 25.5528 46.3185 25.5457 45.8087C25.5371 45.1507 25.5386 44.4913 25.5457 43.8332C25.5556 42.9253 26.1259 42.3506 27.0367 42.3478C29.1391 42.3407 31.2416 42.3463 33.344 42.3449L33.3426 42.3463Z" fill="#333333"/>
<path d="M19.3092 42.4085C18.397 42.4085 17.4848 42.4113 16.5726 42.4085C16.0066 42.4056 15.6661 42.1218 15.6704 41.67C15.6746 41.2195 16.0123 40.9456 16.5854 40.9442C18.2481 40.9413 19.9107 40.9442 21.5734 40.9427C22.3962 40.9427 22.5225 40.8594 22.8317 40.1181C22.9608 39.8074 23.0828 39.4926 23.2275 39.189C23.3609 38.908 23.2772 38.7894 22.9793 38.7583C22.0288 38.6609 21.0811 38.5521 20.1306 38.4519C19.488 38.3841 18.8425 38.3347 18.2012 38.2528C17.2649 38.1327 16.5726 37.5354 15.8633 36.9974C15.5625 36.7687 15.5696 36.3917 15.7895 36.081C16.0094 35.7718 16.3329 35.6715 16.6861 35.8353C16.95 35.9596 17.2167 36.1036 17.438 36.2914C18.0594 36.8209 18.8283 36.7983 19.5632 36.8831C20.7889 37.0257 22.0174 37.1499 23.246 37.2601C24.6533 37.3858 25.2307 38.3276 24.676 39.6267C24.4745 40.0983 24.2873 40.5756 24.0787 41.0444C23.6801 41.9354 22.9864 42.3986 22.0032 42.4085C21.1052 42.4169 20.2086 42.4099 19.3106 42.4099L19.3092 42.4085Z" fill="#333333"/>
<path d="M47.339 42.4071C46.4424 42.4071 45.5458 42.4169 44.6492 42.4042C43.7044 42.3915 43.0277 41.9397 42.6333 41.091C42.3992 40.5869 42.1964 40.0687 41.9807 39.5561C41.4757 38.3559 42.0361 37.4112 43.3384 37.27C44.4322 37.1514 45.5245 37.0031 46.6226 36.9268C47.7788 36.8464 48.8981 36.7221 49.8273 35.9229C50.0926 35.6955 50.4274 35.6941 50.7296 35.9031C50.9864 36.081 51.0644 36.338 51.0204 36.636C50.9807 36.9071 50.7707 37.044 50.5806 37.2121C49.4613 38.2034 48.0753 38.3375 46.6751 38.4491C45.7246 38.5239 44.7755 38.6298 43.8278 38.7357C43.3327 38.7908 43.32 38.8275 43.503 39.2723C43.6306 39.5843 43.7612 39.8936 43.8903 40.2042C44.1456 40.8143 44.3272 40.9399 44.9869 40.9399C46.6041 40.9427 48.2214 40.9399 49.8373 40.9399C49.9408 40.9399 50.043 40.9399 50.1465 40.9399C50.6828 40.9512 51.0119 41.2266 51.0162 41.6657C51.0204 42.1035 50.6885 42.4014 50.1607 42.4042C49.2201 42.4113 48.2796 42.4056 47.339 42.4056V42.4071Z" fill="#333333"/>
<path d="M33.3156 38.8924C31.2429 38.8924 29.1703 38.8952 27.0976 38.891C26.5301 38.891 26.2024 38.5578 26.2578 38.0649C26.3032 37.6583 26.6011 37.4281 27.1104 37.4267C29.2128 37.4225 31.3153 37.4239 33.4163 37.4239C35.4748 37.4239 37.5318 37.4225 39.5903 37.4267C40.1592 37.4267 40.4855 37.7599 40.4301 38.2528C40.3847 38.6594 40.0868 38.8896 39.5775 38.891C37.4907 38.8938 35.4024 38.891 33.3156 38.891V38.8924Z" fill="#333333"/>
<path d="M17.0819 52.9523C16.3612 52.9523 15.6406 52.9622 14.9199 52.9509C13.7694 52.9325 12.8557 52.0204 12.8316 50.878C12.826 50.6295 12.8231 50.3795 12.8345 50.131C12.8543 49.665 13.1451 49.377 13.5778 49.3812C14.0077 49.3854 14.2815 49.6749 14.3042 50.1494C14.307 50.2073 14.3042 50.2666 14.3056 50.3245C14.3141 51.303 14.4943 51.4852 15.459 51.4852C16.5911 51.4852 17.7246 51.4781 18.8567 51.4894C19.2638 51.4937 19.5915 51.3948 19.8639 51.0644C20.1405 50.7283 20.5817 50.693 20.8882 50.926C21.2074 51.1689 21.2826 51.5713 21.0456 51.9483C20.6527 52.5725 20.081 52.9297 19.3333 52.9481C18.5829 52.9664 17.8324 52.9523 17.0819 52.9523Z" fill="#333333"/>
<path d="M49.5918 52.9509C48.8413 52.9509 48.0908 52.9692 47.3418 52.9452C46.6168 52.9212 46.0479 52.5838 45.6564 51.9737C45.4039 51.5798 45.4748 51.1632 45.811 50.9175C46.1217 50.6902 46.5501 50.734 46.8325 51.0757C47.0935 51.392 47.4084 51.4922 47.8 51.488C49.0058 51.4781 50.2131 51.488 51.419 51.4838C52.1269 51.4809 52.3723 51.2324 52.3822 50.5306C52.3851 50.34 52.3652 50.1451 52.4021 49.9616C52.4674 49.6255 52.6873 49.4207 53.0348 49.384C53.4008 49.3445 53.6718 49.504 53.8066 49.8415C54.1485 50.6972 53.7512 51.9794 52.9852 52.5372C52.6192 52.804 52.2148 52.9551 51.7552 52.9523C51.0345 52.9481 50.3138 52.9523 49.5932 52.9523L49.5918 52.9509Z" fill="#333333"/>
<path d="M53.1797 15.0257C54.9802 15.0257 56.4398 13.5729 56.4398 11.7808C56.4398 9.98869 54.9802 8.53589 53.1797 8.53589C51.3793 8.53589 49.9197 9.98869 49.9197 11.7808C49.9197 13.5729 51.3793 15.0257 53.1797 15.0257Z" fill="#333333"/>
</svg>
