<svg width="57" height="65" viewBox="0 0 57 65" fill="none" xmlns="http://www.w3.org/2000/svg">
<path d="M21.0823 13.3496C20.8804 13.2266 20.6659 13.2938 20.4615 13.2837C19.7442 13.2456 19.3139 12.8375 19.3291 12.1961C19.3431 11.5826 19.7658 11.1745 20.4539 11.1694C22.2946 11.1568 24.1354 11.1644 25.9749 11.1644C26.3773 11.1644 26.7797 11.1479 27.1809 11.1694C27.5694 11.1897 27.6747 11.0541 27.5414 10.6865C27.3815 10.2429 27.3967 9.81191 27.7534 9.45066C28.3196 8.87647 29.2197 9.08181 29.546 9.90064C30.055 11.1745 30.5184 12.4674 31.0033 13.7514C31.0617 13.906 31.1328 14.0556 31.2242 14.2673C31.5251 13.9795 31.6292 13.636 31.7917 13.3344C32.0532 12.8514 32.2817 12.3508 32.5483 11.8704C32.9177 11.2049 33.5093 10.9869 34.078 11.2822C34.6429 11.5763 34.8156 12.1847 34.4716 12.873C33.9231 13.9681 33.3404 15.0468 32.7692 16.1305C32.5724 16.5044 32.3261 16.8555 32.1649 17.2434C30.9449 20.1714 28.3387 21.591 25.8098 23.0956C24.8654 23.6584 23.9082 24.2009 22.9751 24.7801C21.326 25.8043 20.6037 27.8412 21.2245 29.6449C21.571 30.6513 22.1068 30.8757 23.0551 30.3965C26.9422 28.4319 30.8104 26.4317 34.6442 24.3631C36.1473 23.5519 37.2124 22.3148 38.2902 21.0739C41.1313 17.8024 43.8378 14.4194 46.5482 11.0401C46.6929 10.8589 46.8364 10.6738 47.0014 10.5103C47.4457 10.0705 48.05 10.0287 48.4867 10.395C48.9082 10.7486 48.9729 11.3101 48.6873 11.8311C48.5324 12.1137 48.0729 12.3191 48.2328 12.6537C48.3686 12.9414 48.8244 12.9262 49.1405 13.0314C51.5766 13.8426 53.8947 14.915 56.1354 16.1622C56.209 16.2028 56.2839 16.2446 56.355 16.2902C56.9656 16.6832 57.1611 17.2561 56.8691 17.7986C56.5683 18.3576 55.9221 18.5236 55.2721 18.1649C53.8452 17.3778 52.3917 16.6464 50.8911 16.0101C49.7219 15.5145 48.5159 15.1228 47.3137 14.7198C46.7361 14.5258 46.3921 14.6665 46.0264 15.1292C44.0867 17.5818 42.0352 19.9458 40.0687 22.3769C38.3245 24.5317 36.2006 26.1148 33.7391 27.3329C31.4654 28.4585 29.2375 29.6728 26.9765 30.825C26.5601 31.0366 26.357 31.2483 26.4776 31.7477C26.5601 32.0887 26.5309 32.4639 26.5093 32.82C26.4751 33.3854 26.0803 33.7796 25.5445 33.8087C24.9555 33.8404 24.5074 33.5641 24.435 32.995C24.3423 32.2687 24.0656 32.3384 23.5286 32.5703C21.9366 33.2586 20.2152 32.5919 19.4586 31.0366C19.3025 30.7159 19.1819 30.3775 19.013 29.9694C18.7439 30.3953 18.6791 30.825 18.6068 31.242C18.2869 33.0685 18.3745 34.8633 19.173 36.5668C19.6554 37.5961 20.3142 38.4352 21.585 38.5683C22.1702 38.6291 22.5003 39.1323 22.4546 39.7027C22.4102 40.2579 21.995 40.6495 21.3895 40.6572C19.8141 40.6749 18.7261 39.8066 17.8616 38.6152C16.9476 37.3552 16.4829 35.9027 16.3319 34.3702C16.1567 32.5881 16.2811 30.8237 16.9501 29.1353C17.1202 28.7044 17.2738 28.2329 17.5645 27.8894C19.4091 25.7143 20.7751 23.0943 23.6035 21.8471C25.1611 21.1601 26.5398 20.0941 27.9781 19.1637C28.7614 18.658 29.2311 17.9279 29.6932 17.1686C29.8456 16.9189 29.7897 16.687 29.697 16.4436C29.3606 15.5551 29.0166 14.6691 28.6979 13.7742C28.5735 13.4256 28.3818 13.2748 27.9997 13.2811C26.7937 13.2989 25.5877 13.2925 24.3817 13.2849C24.1037 13.2837 23.898 13.3749 23.7304 13.598C22.7136 14.9492 21.6815 16.2864 20.7878 17.7263C20.5415 18.1243 20.5326 18.4564 20.7979 18.8304C21.0175 19.1409 21.2308 19.459 21.406 19.7949C21.665 20.2893 21.5241 20.8318 21.095 21.1474C20.6494 21.4744 20.101 21.4643 19.7163 21.0333C19.1222 20.3679 18.6423 19.6137 18.3681 18.7594C18.198 18.2321 18.3567 17.7162 18.6042 17.232C19.2034 16.0608 19.988 15.01 20.7484 13.9428C20.8779 13.7615 21.0835 13.617 21.0848 13.3546L21.0823 13.3496Z" fill="#333333"/>
<path d="M11.5735 16.4146C11.3069 16.5907 11.2587 16.8062 11.1749 16.9938C9.63629 20.425 8.10148 23.8562 6.56794 27.2899C6.27596 27.944 6.35974 28.0859 7.08716 28.148C8.46963 28.2659 9.5652 27.75 10.3688 26.6232C10.4907 26.4521 10.5859 26.2607 10.6938 26.0794C11.1038 25.3886 11.7043 25.1694 12.2768 25.5002C12.8291 25.8196 12.9535 26.4267 12.6069 27.1087C11.2562 29.7705 8.30333 30.9898 5.60313 30.0037C4.28286 29.5208 3.72683 28.3432 4.29683 27.0529C5.97001 23.2668 7.65716 19.4858 9.39001 15.725C9.78228 14.8732 10.3828 14.1165 10.8207 13.2457C9.83941 14.0278 8.85556 14.8086 7.87551 15.5919C6.1909 16.938 4.50629 18.2854 2.82168 19.6315C2.18948 20.1373 2.19329 20.2691 2.89785 20.6988C3.16698 20.8636 3.46785 20.9764 3.74333 21.1323C4.2562 21.4238 4.46186 21.9739 4.26382 22.4809C4.05562 23.0133 3.49324 23.2845 2.9042 23.0919C1.91527 22.7674 1.07741 22.2008 0.438854 21.3807C-0.282215 20.4554 -0.105756 19.2411 0.902217 18.4033C2.26692 17.2676 3.6697 16.1775 5.05598 15.0672C6.47527 13.9302 7.91487 12.8186 9.30623 11.6487C10.4158 10.7145 11.6484 9.98693 12.9078 9.29232C13.3102 9.07051 13.6098 8.77517 13.8637 8.39492C15.2868 6.26294 16.8533 4.25264 18.7906 2.54402C20.008 1.47042 21.3854 0.952003 23.0002 0.901302C26.2755 0.7999 29.5495 0.652867 32.8222 0.510904C36.2435 0.362603 39.6635 0.20543 43.0848 0.039384C46.3093 -0.116522 49.5033 0.218105 52.6935 0.617376C53.5733 0.727651 54.4581 0.81004 55.3391 0.912709C55.6324 0.946933 55.9345 0.968481 56.2125 1.05848C56.7648 1.23466 57.0326 1.63393 56.9768 2.21953C56.9272 2.74809 56.5121 3.16003 55.9421 3.12581C54.9316 3.06497 53.9224 2.94455 52.9169 2.82414C50.5455 2.54275 48.1716 2.20052 45.7888 2.16376C43.3615 2.12573 40.9304 2.31966 38.5019 2.4198C37.3187 2.46923 36.1381 2.54528 34.955 2.59345C31.4486 2.73668 27.9423 2.87104 24.4347 3.01427C23.7162 3.04342 22.9989 3.08652 22.2829 3.14229C21.6266 3.19299 21.0795 3.49973 20.5729 3.90407C18.5126 5.55059 16.9676 7.6382 15.5305 9.81201C14.878 10.7981 14.3042 11.835 13.6898 12.8465C13.4854 13.1836 13.3851 13.5385 13.4422 13.9327C13.8167 16.5033 14.2306 19.0637 15.038 21.5442C15.3985 22.6508 15.9266 23.6395 16.833 24.4012C17.059 24.5914 17.2761 24.8081 17.3408 25.1123C17.4475 25.6193 17.3015 26.0452 16.8419 26.3063C16.3595 26.5801 15.933 26.4584 15.5051 26.1137C13.8865 24.8094 13.1477 23.012 12.6221 21.0905C12.2426 19.705 11.9391 18.3032 11.7068 16.8848C11.684 16.7428 11.6307 16.6059 11.5761 16.412L11.5735 16.4146Z" fill="#333333"/>
<path d="M17.2917 55.5316C17.2917 53.8204 17.2612 52.1092 17.3069 50.3993C17.3247 49.7162 17.1508 49.4043 16.4297 49.2598C14.8556 48.943 13.4249 48.28 12.2061 47.195C9.61385 44.8894 9.02481 39.273 13.0846 37.0536C13.3068 36.9319 13.534 36.8127 13.774 36.7354C14.2932 36.5668 14.8226 36.7975 15.0549 37.2754C15.305 37.7862 15.1679 38.2184 14.7604 38.5822C14.6677 38.6646 14.5547 38.7356 14.4392 38.7837C11.433 40.0614 11.9738 44.3837 13.9276 45.8172C15.0866 46.6678 16.3866 47.1127 17.7792 47.3408C20.4959 47.787 23.2075 47.7604 25.9001 47.1634C26.7481 46.9758 27.5555 46.6601 28.3083 46.2102C30.304 45.0174 30.7978 42.8157 30.2659 40.8574C30.012 39.9232 29.3442 39.3161 28.514 38.8687C27.1417 38.1297 25.6272 37.9472 24.1165 37.752C23.2583 37.6417 22.8178 37.1993 22.8952 36.5313C22.9689 35.8976 23.497 35.5592 24.3132 35.6187C26.0347 35.7442 27.704 36.0814 29.2769 36.8153C33.9956 39.0182 33.3317 45.4344 29.946 47.7287C28.2309 48.891 26.319 49.398 24.3069 49.6566C22.8952 49.8378 21.4772 49.796 20.0617 49.7681C19.5603 49.7592 19.4029 49.9228 19.4054 50.4196C19.4219 53.7786 19.4118 57.1362 19.4168 60.4952C19.4168 61.262 20.487 62.5689 21.236 62.7425C21.316 62.7615 21.4049 62.7679 21.4861 62.7577C22.0764 62.6842 23.3446 61.276 23.3827 60.6777C23.4005 60.4052 23.2456 60.2632 23.0653 60.101C22.1158 59.2505 22.1107 58.5052 23.0704 57.6686C23.3459 57.429 23.384 57.3061 23.0818 57.045C22.1043 56.2033 22.1005 55.4492 23.0679 54.6265C23.3865 54.3566 23.3967 54.188 23.0565 53.9573C22.6096 53.6544 22.3405 53.2475 22.3773 52.6796C22.409 52.2132 22.6312 51.8836 23.0666 51.7062C23.4881 51.5351 23.8804 51.6326 24.1711 51.947C24.4313 52.2284 24.7258 52.4629 25.0038 52.7202C25.5586 53.2335 25.7325 54.638 25.3288 55.4504C25.207 55.6963 25.174 55.87 25.2946 56.1438C25.6399 56.9258 25.617 57.7383 25.3022 58.5343C25.2412 58.6877 25.1435 58.8056 25.2082 59.0033C26.022 61.4572 24.5367 64.204 22.0231 64.91C21.3046 65.1115 20.6393 64.9505 20.0148 64.5855C19.1439 64.076 18.4279 63.3915 17.8566 62.5651C17.4771 62.0162 17.2752 61.4129 17.2854 60.7246C17.3095 58.9932 17.293 57.2605 17.293 55.529L17.2917 55.5316Z" fill="#333333"/>
<path d="M21.3997 44.7133C20.0807 44.7576 18.7858 44.584 17.5227 44.2113C16.191 43.8197 15.2643 42.6396 15.2681 41.3961C15.2693 40.756 15.6261 40.301 16.191 40.2211C16.742 40.1426 17.2218 40.5013 17.383 41.1122C17.3932 41.1528 17.4008 41.1946 17.4072 41.2364C17.4922 41.7853 17.8274 42.0705 18.358 42.1985C20.3638 42.6802 22.3658 42.6941 24.3741 42.2124C24.9454 42.0755 25.2958 41.7815 25.4138 41.1769C25.5458 40.5013 26.0384 40.1413 26.6084 40.2199C27.2101 40.3023 27.5656 40.8055 27.5275 41.5216C27.464 42.7308 26.5703 43.8311 25.278 44.2126C24.0161 44.5852 22.7212 44.7576 21.401 44.7133H21.3997Z" fill="#333333"/>
</svg>
