<svg width="94" height="84" viewBox="0 0 94 84" fill="none" xmlns="http://www.w3.org/2000/svg">
<path d="M35.002 48.7673C35.9103 48.848 36.831 48.7848 37.7464 48.7848C44.7044 48.7848 51.6624 48.7831 58.6186 48.7848C59.176 48.7848 59.5269 48.769 59.7474 48.8094C60.5711 48.0263 61.4635 47.3117 62.4107 46.6743C61.848 46.0545 60.9803 45.7385 59.8039 45.7367C55.532 45.7297 51.2602 45.7349 46.9867 45.7367C42.6232 45.7367 38.2596 45.7279 33.8961 45.742C32.0054 45.7472 30.8219 46.943 30.8025 48.827C30.7884 50.193 30.7866 51.5608 30.8025 52.9286C30.8149 53.9856 31.3863 54.6054 32.307 54.6142C33.2347 54.623 33.8309 54.0067 33.852 52.969C33.8732 51.9664 33.9138 50.9603 33.8415 49.963C33.778 49.064 34.0337 48.6812 34.9985 48.7673H35.002Z" fill="#F3F3F4"/>
<path d="M73.1006 23.973C73.8044 23.973 74.5028 23.9678 75.1907 23.7799C76.1325 23.5235 76.6616 22.8265 76.5188 21.9995C76.3724 21.1461 75.6986 20.6457 74.6933 20.7493C73.7515 20.8459 72.8149 20.9337 71.866 20.9267C54.2797 20.795 36.6933 21.1742 19.1087 20.73C18.2286 20.7072 17.6025 21.2058 17.4649 21.9977C17.3273 22.7949 17.83 23.513 18.7013 23.7606C19.4138 23.9625 20.1458 23.973 20.8795 23.973C29.5519 23.9695 38.226 23.9713 46.8984 23.973C55.6325 23.973 64.3665 23.973 73.1006 23.973Z" fill="#F3F3F4"/>
<path d="M25.1708 41.1047C24.5306 42.6428 24.2695 42.8167 22.5604 42.8184C19.1088 42.8184 15.6571 42.8149 12.2055 42.8219C11.0167 42.8237 10.3165 43.3943 10.3077 44.3302C10.2989 45.2678 11.0044 45.8578 12.179 45.863C14.0733 45.8718 15.9658 45.8648 17.8601 45.8648C19.7226 45.8648 21.5869 45.8771 23.4494 45.8613C25.49 45.842 26.931 44.8798 27.7582 43.0309C28.1939 42.0599 28.5819 41.0679 28.9999 40.0881C30.1516 37.3911 28.954 35.4351 26.0333 35.1735C23.4811 34.9453 20.9325 34.6872 18.3874 34.3904C16.8618 34.2131 15.2656 34.2605 13.9745 33.1613C13.5177 32.7715 12.9639 32.4713 12.4154 32.2149C11.6834 31.8726 11.0114 32.0815 10.5564 32.7241C10.0996 33.3668 10.0837 34.1516 10.7098 34.6257C12.1808 35.7424 13.62 36.9838 15.5637 37.2331C16.8935 37.4034 18.234 37.5035 19.5674 37.6457C21.5392 37.8547 23.5076 38.0777 25.4795 38.2814C26.1003 38.3446 26.2731 38.5939 25.9962 39.1751C25.6946 39.8054 25.4424 40.4603 25.1726 41.1047H25.1708Z" fill="#F3F3F4"/>
<path d="M68.5223 41.1047C69.1626 42.6428 69.4236 42.8167 71.1327 42.8184C74.5843 42.8184 78.036 42.8149 81.4876 42.8219C82.6764 42.8237 83.3766 43.3943 83.3854 44.3302C83.3943 45.2678 82.6888 45.8578 81.5141 45.863C79.6198 45.8718 77.7273 45.8648 75.8331 45.8648C73.9705 45.8648 72.1063 45.8771 70.2437 45.8613C68.2031 45.842 66.7621 44.8798 65.9349 43.0309C65.4993 42.0599 65.1112 41.0679 64.6932 40.0881C63.5415 37.3911 64.7391 35.4351 67.6598 35.1735C70.212 34.9453 72.7606 34.6872 75.3057 34.3904C76.8313 34.2131 78.4275 34.2605 79.7186 33.1613C80.1754 32.7715 80.7292 32.4713 81.2778 32.2149C82.0097 31.8726 82.6817 32.0815 83.1367 32.7241C83.5936 33.3668 83.6094 34.1516 82.9833 34.6257C81.5123 35.7424 80.0731 36.9838 78.1295 37.2331C76.7996 37.4034 75.4591 37.5035 74.1258 37.6457C72.1539 37.8547 70.1855 38.0777 68.2137 38.2814C67.5928 38.3446 67.42 38.5939 67.6969 39.1751C67.9985 39.8054 68.2507 40.4603 68.5206 41.1047H68.5223Z" fill="#F3F3F4"/>
<path d="M47.1417 35.5195C42.7782 35.5195 38.4147 35.5177 34.0512 35.5247C32.9929 35.5265 32.3756 36.0058 32.2804 36.8486C32.1657 37.8705 32.8448 38.5606 34.0247 38.5623C38.3265 38.5711 42.63 38.5658 46.9318 38.5658C51.2654 38.5658 55.5971 38.5693 59.9307 38.5623C60.9889 38.5623 61.6062 38.0812 61.7015 37.2367C61.8161 36.213 61.1388 35.5265 59.9589 35.523C55.6871 35.5124 51.4153 35.5159 47.1435 35.5159L47.1417 35.5195Z" fill="#F3F3F4"/>
<path d="M54.3854 57.4059C41.5524 57.3971 28.7176 57.4112 15.8846 57.4498C13.4277 57.4568 11.3764 56.9125 9.49626 55.3077C8.1805 54.1839 7.47676 52.9074 7.475 51.2236C7.46794 45.2941 7.46971 39.3664 7.475 33.437C7.475 32.2851 7.77307 31.2229 8.4433 30.2624C9.29695 29.0386 10.1048 27.7849 10.9496 26.5559C11.8861 25.1933 11.6251 24.2733 10.1206 23.6113C8.13817 22.7369 6.16982 21.8362 4.19266 20.953C3.63003 20.7019 3.16792 20.3472 3.12736 19.6993C3.05328 18.5054 4.72531 16.7162 5.93525 16.6846C7.09579 16.6547 8.25634 16.6846 9.41689 16.6705C10.5157 16.6565 11.1824 16.056 11.1665 15.1236C11.1524 14.2264 10.5016 13.6434 9.45393 13.6329C8.10995 13.6189 6.76597 13.6031 5.42199 13.6399C3.77994 13.6838 2.49417 14.4265 1.5876 15.7785C1.19958 16.358 0.864466 16.9778 0.543463 17.5993C-0.638249 19.8784 0.155438 22.3805 2.45537 23.5709C3.37605 24.0468 4.34434 24.4278 5.2756 24.8843C5.98287 25.2302 7.0905 25.311 7.30392 25.9624C7.54379 26.6963 6.64251 27.3793 6.16806 28.022C4.88582 29.762 4.35845 31.6566 4.38491 33.8215C4.45546 39.6895 4.4096 45.5575 4.41137 51.4255C4.41137 51.9716 4.40255 52.5159 4.52072 53.0584C5.33204 56.7843 9.80668 60.4505 13.6393 60.4558C24.7262 60.4698 35.8114 60.461 46.8983 60.4628C49.1612 60.4628 51.4259 60.4628 53.6888 60.4628C53.8422 59.4163 54.0768 58.3962 54.3854 57.4094V57.4059Z" fill="#F3F3F4"/>
<path d="M21.1352 63.5496C20.5002 63.0667 19.5848 63.1405 19.0099 63.8376C18.4437 64.5223 17.7647 64.7278 16.9181 64.719C14.567 64.6944 12.2159 64.7102 9.86482 64.7102C7.86296 64.7102 7.48728 64.3309 7.47141 62.3012C7.47141 62.18 7.47317 62.0571 7.46788 61.936C7.42203 60.9527 6.8541 60.3505 5.96164 60.3417C5.06389 60.3312 4.46069 60.9299 4.41836 61.8974C4.39719 62.4136 4.40249 62.9315 4.41307 63.4478C4.46245 65.8199 6.35848 67.7144 8.74837 67.7513C10.244 67.7741 11.7414 67.7548 13.2371 67.7548C14.7945 67.7548 16.3519 67.7847 17.9093 67.746C19.4614 67.7074 20.6484 66.9682 21.4632 65.6724C21.9571 64.8875 21.7984 64.0535 21.1369 63.5496H21.1352Z" fill="#F3F3F4"/>
<path d="M84.3854 16.6653C85.3007 16.6934 86.2249 16.7461 87.1315 16.6583C88.7436 16.5038 89.7842 17.099 90.4615 18.595C91.0541 19.9031 90.9694 20.414 89.6237 21.0233C87.6501 21.917 85.6711 22.795 83.694 23.6816C82.4152 24.2558 82.1419 25.2443 82.9303 26.4067C83.8016 27.692 84.6517 28.9913 85.5424 30.2625C86.1967 31.1966 86.5019 32.2291 86.5054 33.3475C86.5124 38.1462 86.5124 42.9467 86.5054 47.7454C87.6342 48.6584 88.6607 49.6891 89.569 50.8198C89.5725 44.8184 89.569 38.8187 89.5725 32.8173C89.5725 31.4056 89.1634 30.1221 88.4032 28.9456C87.9076 28.1783 87.4208 27.4023 86.874 26.6736C86.4419 26.0994 86.5371 25.815 87.1968 25.5358C88.6289 24.9318 90.047 24.2857 91.4474 23.6097C92.7914 22.9618 93.6027 21.8819 93.9396 20.4175C94.4176 18.3351 91.9854 14.1738 89.7313 13.8121C89.4314 13.7647 89.1351 13.6506 88.8353 13.647C87.3396 13.626 85.8422 13.6119 84.3466 13.6383C83.4418 13.6541 82.8297 14.2879 82.8174 15.1219C82.805 15.9981 83.4294 16.6355 84.3854 16.6653Z" fill="#F3F3F4"/>
<path d="M12.0887 22.0592C12.7924 22.5105 13.6566 22.3823 14.1928 21.6308C15.0218 20.4684 15.8772 19.3166 16.521 18.0313C18.3059 14.467 20.1067 10.9114 21.8863 7.34533C22.6359 5.84585 23.7717 4.90472 25.4879 4.75548C27.4933 4.5834 29.4969 4.39729 31.5058 4.26033C34.0315 4.09001 36.5607 3.93023 39.0899 3.82839C42.1694 3.70373 45.2525 3.53517 48.332 3.58258C52.1752 3.64228 56.0149 3.87405 59.8545 4.08299C62.5337 4.22873 65.2093 4.47454 67.8867 4.64486C69.9802 4.7783 71.3789 5.7844 72.289 7.68245C73.961 11.1643 75.7459 14.5934 77.4762 18.0489C78.1058 19.3061 78.9542 20.4246 79.7461 21.5781C80.1818 22.2137 80.8202 22.4859 81.5857 22.2067C82.2595 21.9609 82.584 21.4412 82.5981 20.7301C82.6034 20.1366 82.2524 19.6924 81.9332 19.2569C81.0107 17.998 80.277 16.6372 79.5821 15.2466C77.9048 11.9017 76.2504 8.54281 74.4848 5.24535C73.4372 3.29111 71.6981 2.14279 69.4934 1.74246C68.2306 1.51245 66.9466 1.48611 65.6714 1.37023C61.0821 0.95058 56.484 0.685449 51.8806 0.534447C43.5399 0.260537 35.2308 0.890882 26.9147 1.40885C22.8511 1.66169 20.1949 3.39997 18.4346 7.08723C16.3569 11.4435 14.4256 15.8963 11.6495 19.896C11.1151 20.6669 11.362 21.5939 12.0869 22.0592H12.0887Z" fill="#F3F3F4"/>
<path fill-rule="evenodd" clip-rule="evenodd" d="M73.8043 50.5173C65.4924 50.5173 58.7542 57.2252 58.7542 65.4998C58.7542 73.7744 65.4924 80.4823 73.8043 80.4823C82.1162 80.4823 88.8544 73.7744 88.8544 65.4998C88.8544 57.2252 82.1162 50.5173 73.8043 50.5173ZM55.7559 65.4998C55.7559 55.5767 63.8364 47.5323 73.8043 47.5323C83.7722 47.5323 91.8528 55.5767 91.8528 65.4998C91.8528 75.423 83.7722 83.4673 73.8043 83.4673C63.8364 83.4673 55.7559 75.423 55.7559 65.4998Z" fill="#F3F3F4"/>
<path d="M74.2274 67.7333C78.0495 67.7333 80.0866 65.2733 80.0866 62.5623C80.0866 59.8513 78.5998 57.4353 73.8853 57.4353C72.7635 57.4353 70.2237 57.481 69.3313 57.481V68.541H67.8621V71.3468H69.3313V73.4275H72.1462V71.3468H76.3757V68.541H72.1462V67.6648C72.8323 67.7333 73.7477 67.7333 74.2292 67.7333H74.2274ZM72.1444 60.1007C72.8993 60.0778 73.5854 60.055 74.1586 60.055C76.0811 60.055 77.1112 60.875 77.1112 62.5378C77.1112 64.3147 75.806 65.1118 74.1357 65.1118C73.4955 65.1118 72.8076 65.0662 72.1444 64.9977V60.0989V60.1007Z" fill="#F3F3F4"/>
</svg>
