<svg width="26" height="26" viewBox="0 0 26 26" fill="none" xmlns="http://www.w3.org/2000/svg">
<g clip-path="url(#clip0_30_481)">
<path d="M12.6673 25.8143C12.4211 25.8143 12.1849 25.7165 12.0107 25.5423C11.8366 25.3682 11.7388 25.132 11.7388 24.8857C11.7388 24.6394 11.8366 24.4033 12.0107 24.2291C12.1849 24.055 12.4211 23.9571 12.6673 23.9571C15.5734 23.9571 18.3603 22.8027 20.4152 20.7479C22.4701 18.693 23.6245 15.906 23.6245 13C23.6245 10.094 22.4701 7.30699 20.4152 5.25213C18.3603 3.19727 15.5734 2.04286 12.6673 2.04286C12.4211 2.04286 12.1849 1.94503 12.0107 1.77089C11.8366 1.59674 11.7388 1.36056 11.7388 1.11429C11.7388 0.868014 11.8366 0.631828 12.0107 0.457687C12.1849 0.283546 12.4211 0.185715 12.6673 0.185715C16.0659 0.185715 19.3253 1.53579 21.7284 3.93893C24.1316 6.34208 25.4816 9.60144 25.4816 13C25.4816 16.3986 24.1316 19.6579 21.7284 22.0611C19.3253 24.4642 16.0659 25.8143 12.6673 25.8143Z" fill="#333333"/>
<path d="M14.5791 13.9286H1.44615C1.19988 13.9286 0.963691 13.8307 0.78955 13.6566C0.615409 13.4825 0.517578 13.2463 0.517578 13C0.517578 12.7537 0.615409 12.5175 0.78955 12.3434C0.963691 12.1693 1.19988 12.0714 1.44615 12.0714H14.5791C14.8254 12.0714 15.0616 12.1693 15.2357 12.3434C15.4099 12.5175 15.5077 12.7537 15.5077 13C15.5077 13.2463 15.4099 13.4825 15.2357 13.6566C15.0616 13.8307 14.8254 13.9286 14.5791 13.9286Z" fill="#333333"/>
<path d="M9.83098 19.6397C9.64669 19.6403 9.46638 19.5861 9.313 19.4839C9.15962 19.3817 9.04012 19.2362 8.9697 19.0659C8.89928 18.8956 8.88114 18.7082 8.91757 18.5275C8.954 18.3469 9.04337 18.1811 9.17429 18.0514L13.9167 13.3083C13.9576 13.2674 13.9901 13.2188 14.0123 13.1653C14.0344 13.1119 14.0459 13.0545 14.0459 12.9967C14.0459 12.9388 14.0344 12.8815 14.0123 12.828C13.9901 12.7745 13.9576 12.7259 13.9167 12.685L9.17429 7.94857C9.08558 7.86294 9.01481 7.76049 8.96612 7.64722C8.91742 7.53394 8.89177 7.4121 8.89066 7.28881C8.88956 7.16551 8.91302 7.04323 8.95967 6.9291C9.00633 6.81497 9.07525 6.71127 9.16241 6.62406C9.24957 6.53685 9.35323 6.46787 9.46733 6.42115C9.58144 6.37443 9.70371 6.3509 9.827 6.35194C9.9503 6.35298 10.0722 6.37856 10.1855 6.42719C10.2988 6.47582 10.4012 6.54653 10.4869 6.6352L15.2286 11.3754C15.6582 11.8069 15.8993 12.3911 15.8993 13C15.8993 13.6089 15.6582 14.1931 15.2286 14.6246L10.4854 19.3678C10.3996 19.4539 10.2976 19.5222 10.1853 19.5688C10.073 19.6155 9.95258 19.6395 9.83098 19.6397Z" fill="#333333"/>
</g>
<defs>
<clipPath id="clip0_30_481">
<rect width="26" height="26" fill="white"/>
</clipPath>
</defs>
</svg>
