<svg width="110" height="32" viewBox="0 0 110 32" fill="none" xmlns="http://www.w3.org/2000/svg">
<path d="M93.5352 27.8203C92.9397 27.8203 92.3844 27.4587 92.1687 26.8768L87.7037 14.6892L84.6483 23.0205L86.8003 21.7068C87.4793 21.2915 88.3769 21.4977 88.7998 22.1673C89.2227 22.834 89.0127 23.7155 88.3308 24.1279L82.6345 27.6028C82.1109 27.9249 81.4348 27.8797 80.9543 27.4983C80.4768 27.1169 80.2955 26.4784 80.5027 25.9077L86.3371 9.99673C86.5442 9.43171 87.0909 9.05597 87.7037 9.05597C88.3164 9.05597 88.8602 9.43171 89.0702 9.99673L94.9018 25.9077C95.1751 26.6479 94.7838 27.4644 94.0272 27.7328C93.8661 27.7893 93.6992 27.8175 93.5352 27.8175V27.8203Z" fill="#221F20"/>
<path d="M15.6535 26.2072C15.6535 26.9022 15.0004 27.518 14.2438 27.518C13.4871 27.518 12.7794 26.9022 12.7794 26.2072V15.5311L9.17458 22.8199C8.91278 23.3595 8.38917 23.6137 7.81666 23.6137C7.24415 23.6137 6.74356 23.3567 6.45874 22.8199L2.87695 15.5311V26.2072C2.87695 26.9022 2.19799 27.518 1.38669 27.518C0.575389 27.518 0 26.9022 0 26.2072V10.3216C0 9.52493 0.630051 8.93731 1.49026 8.93731C2.16922 8.93731 2.66693 9.21982 2.95462 9.75942L7.84255 19.6671L12.7046 9.73399C13.0182 9.14354 13.5677 8.94013 14.169 8.94013C15.0061 8.94013 15.6592 9.55601 15.6592 10.3244V26.21L15.6535 26.2072Z" fill="#221F20"/>
<path d="M28.7751 27.261H21.8503C20.7772 27.261 19.8105 26.9022 19.8105 25.7467V10.6804C19.8105 9.9374 20.4895 9.16615 21.4303 9.16615H28.5162C29.2987 9.16615 29.9518 9.78202 29.9518 10.5278C29.9518 11.2737 29.2987 11.8104 28.5162 11.8104H22.6875V16.8674H28.0213C28.7262 16.8674 29.4311 17.4324 29.4311 18.1754C29.4311 18.9184 28.8039 19.5089 28.0213 19.5089H22.6875V24.6421H28.778C29.5346 24.6421 30.2165 25.2071 30.2165 25.9021C30.2165 26.6705 29.5634 27.261 28.778 27.261H28.7751Z" fill="#221F20"/>
<path d="M37.1671 11.8104H34.0054C33.1682 11.8104 32.5669 11.1946 32.5669 10.5024C32.5669 9.91197 33.1941 9.16897 34.0054 9.16897H43.2058C43.9366 9.16897 44.6673 9.75942 44.6673 10.5024C44.6673 11.1946 43.9884 11.8104 43.2058 11.8104H40.0412V26.1818C40.0412 26.8767 39.3881 27.518 38.6056 27.518C37.8231 27.518 37.1671 26.8767 37.1671 26.1818V11.8104Z" fill="#221F20"/>
<path d="M67.0271 15.5565C67.0271 11.5534 68.9863 8.93449 73.2988 8.93449C75.8622 8.93449 78.3162 10.0645 78.3162 11.398C78.3162 12.0647 77.7437 12.6297 76.9842 12.6297C76.4894 12.6297 76.3311 12.4489 75.937 12.2173L75.8075 12.1382C75.1027 11.6494 74.3432 11.4178 73.4283 11.4178C70.7614 11.4178 69.9012 13.0111 69.9012 15.5509V20.8367C69.9012 23.3764 70.7643 24.9698 73.4283 24.9698C74.3432 24.9698 75.0998 24.7381 75.8075 24.2776L75.937 24.2014C76.3283 23.9697 76.4894 23.7889 76.9842 23.7889C77.7437 23.7889 78.3162 24.3539 78.3162 24.9952C78.3162 26.3569 75.8622 27.4587 73.2988 27.4587C68.9863 27.4587 67.0271 24.8427 67.0271 20.8367V15.5509V15.5565Z" fill="#221F20"/>
<path d="M105.92 19.3563C107.203 21.3847 108.51 23.3595 109.79 25.3851C109.919 25.515 109.997 25.9247 109.997 26.0801C109.997 26.8767 109.214 27.4644 108.507 27.4644C107.983 27.4644 107.566 27.2581 107.307 26.8485L102.784 19.6106H100.405V26.1309C100.405 26.8513 99.7263 27.4926 98.9409 27.4926C98.1555 27.4926 97.5283 26.8767 97.5283 26.1309V10.7058C97.5283 9.88372 98.2619 9.16615 99.125 9.16615H103.673C108.274 9.16615 109.764 11.8359 109.764 14.4519C109.764 17.068 108.274 18.763 105.92 19.3563ZM103.57 11.8104H100.405V17.0199H103.725C105.762 17.0199 106.887 16.1216 106.887 14.4519C106.887 13.1693 106.26 11.8076 103.57 11.8076V11.8104Z" fill="#221F20"/>
<path d="M69.9155 22.9386L50.4674 0.498718C50.0761 0.0467008 49.4375 -0.117156 48.8736 0.0862523C48.3039 0.292485 47.9299 0.82078 47.9299 1.41405V30.4025C47.9299 30.9732 48.2809 31.4902 48.8189 31.7105C48.9973 31.784 49.1843 31.8179 49.3713 31.8179C49.7482 31.8179 50.1135 31.6738 50.3897 31.4026L57.162 24.7551L59.9757 31.1455C60.2145 31.6823 60.7438 31.9987 61.302 31.9987C61.4947 31.9987 61.6846 31.9591 61.8745 31.8828C62.6024 31.5721 62.9418 30.7387 62.6254 30.0211L59.3543 22.5995L60.6863 21.2915C61.2473 20.7378 61.2473 19.8422 60.6863 19.2885C60.1224 18.7376 59.2104 18.7376 58.6466 19.2885L56.601 21.2972H56.5982L50.8155 26.9756V5.26185L68.5461 25.662L69.2136 25.7947C69.7285 26.3908 69.1503 25.4388 69.7544 24.9331C70.3615 24.4274 70.4334 23.5346 69.9184 22.9386H69.9155Z" fill="#F4E30C"/>
</svg>
