<svg width="110" height="32" viewBox="0 0 110 32" fill="none" xmlns="http://www.w3.org/2000/svg">
<path d="M93.5382 27.8203C92.9426 27.8203 92.3874 27.4587 92.1716 26.8767L87.7066 14.6892L84.6513 23.0204L86.8032 21.7067C87.4822 21.2915 88.3798 21.4977 88.8027 22.1672C89.2256 22.834 89.0156 23.7154 88.3338 24.1279L82.6374 27.6027C82.1138 27.9248 81.4377 27.8796 80.9573 27.4982C80.4797 27.1168 80.2984 26.4783 80.5056 25.9077L86.34 9.99667C86.5472 9.43165 87.0938 9.05591 87.7066 9.05591C88.3194 9.05591 88.8631 9.43165 89.0731 9.99667L94.9047 25.9077C95.178 26.6479 94.7867 27.4643 94.0301 27.7327C93.869 27.7892 93.7021 27.8175 93.5382 27.8175V27.8203Z" fill="#F3F3F4"/>
<path d="M15.6564 26.2071C15.6564 26.9021 15.0033 27.518 14.2467 27.518C13.49 27.518 12.7823 26.9021 12.7823 26.2071V15.5311L9.17751 22.8198C8.91571 23.3594 8.3921 23.6137 7.81959 23.6137C7.24708 23.6137 6.74649 23.3566 6.46167 22.8198L2.87987 15.5311V26.2071C2.87987 26.9021 2.20092 27.518 1.38962 27.518C0.578319 27.518 0.00292969 26.9021 0.00292969 26.2071V10.3216C0.00292969 9.52488 0.632981 8.93726 1.49319 8.93726C2.17215 8.93726 2.66986 9.21977 2.95755 9.75936L7.84548 19.667L12.7075 9.73394C13.0211 9.14349 13.5706 8.94008 14.1719 8.94008C15.0091 8.94008 15.6621 9.55595 15.6621 10.3244V26.21L15.6564 26.2071Z" fill="#F3F3F4"/>
<path d="M28.778 27.261H21.8532C20.7801 27.261 19.8135 26.9022 19.8135 25.7467V10.6804C19.8135 9.93739 20.4924 9.16614 21.4332 9.16614H28.5191C29.3016 9.16614 29.9547 9.78201 29.9547 10.5278C29.9547 11.2737 29.3016 11.8104 28.5191 11.8104H22.6904V16.8674H28.0243C28.7291 16.8674 29.434 17.4324 29.434 18.1754C29.434 18.9184 28.8068 19.5089 28.0243 19.5089H22.6904V24.6421H28.7809C29.5376 24.6421 30.2194 25.2071 30.2194 25.9021C30.2194 26.6705 29.5663 27.261 28.7809 27.261H28.778Z" fill="#F3F3F4"/>
<path d="M37.1701 11.8104H34.0083C33.1711 11.8104 32.5698 11.1945 32.5698 10.5024C32.5698 9.91195 33.197 9.16895 34.0083 9.16895H43.2088C43.9395 9.16895 44.6703 9.75939 44.6703 10.5024C44.6703 11.1945 43.9913 11.8104 43.2088 11.8104H40.0441V26.1817C40.0441 26.8767 39.3911 27.518 38.6085 27.518C37.826 27.518 37.1701 26.8767 37.1701 26.1817V11.8104Z" fill="#F3F3F4"/>
<path d="M67.03 15.5565C67.03 11.5533 68.9892 8.93445 73.3018 8.93445C75.8651 8.93445 78.3192 10.0645 78.3192 11.3979C78.3192 12.0647 77.7466 12.6297 76.9871 12.6297C76.4923 12.6297 76.3341 12.4489 75.9399 12.2172L75.8105 12.1381C75.1056 11.6494 74.3461 11.4177 73.4312 11.4177C70.7643 11.4177 69.9041 13.0111 69.9041 15.5509V20.8366C69.9041 23.3764 70.7672 24.9698 73.4312 24.9698C74.3461 24.9698 75.1027 24.7381 75.8105 24.2776L75.9399 24.2013C76.3312 23.9697 76.4923 23.7889 76.9871 23.7889C77.7466 23.7889 78.3192 24.3539 78.3192 24.9952C78.3192 26.3569 75.8651 27.4587 73.3018 27.4587C68.9892 27.4587 67.03 24.8426 67.03 20.8366V15.5509V15.5565Z" fill="#F3F3F4"/>
<path d="M105.923 19.3563C107.206 21.3847 108.513 23.3595 109.793 25.3851C109.922 25.515 110 25.9247 110 26.0801C110 26.8767 109.217 27.4644 108.51 27.4644C107.986 27.4644 107.569 27.2581 107.31 26.8485L102.787 19.6106H100.408V26.1309C100.408 26.8513 99.7292 27.4926 98.9438 27.4926C98.1584 27.4926 97.5312 26.8767 97.5312 26.1309V10.7058C97.5312 9.88372 98.2649 9.16614 99.128 9.16614H103.676C108.277 9.16614 109.767 11.8359 109.767 14.4519C109.767 17.068 108.277 18.763 105.923 19.3563ZM103.573 11.8104H100.408V17.0199H103.728C105.765 17.0199 106.89 16.1216 106.89 14.4519C106.89 13.1693 106.263 11.8076 103.573 11.8076V11.8104Z" fill="#F3F3F4"/>
<path d="M69.9185 22.9386L50.4703 0.498718C50.0791 0.0467008 49.4404 -0.117156 48.8765 0.0862523C48.3069 0.292485 47.9329 0.82078 47.9329 1.41405V30.4025C47.9329 30.9732 48.2838 31.4902 48.8218 31.7105C49.0002 31.784 49.1872 31.8179 49.3742 31.8179C49.7511 31.8179 50.1165 31.6738 50.3927 31.4026L57.165 24.7551L59.9786 31.1455C60.2174 31.6823 60.7468 31.9987 61.3049 31.9987C61.4977 31.9987 61.6875 31.9591 61.8774 31.8828C62.6053 31.5721 62.9448 30.7387 62.6283 30.0211L59.3572 22.5995L60.6892 21.2915C61.2502 20.7378 61.2502 19.8422 60.6892 19.2885C60.1254 18.7376 59.2134 18.7376 58.6495 19.2885L56.604 21.2972H56.6011L50.8184 26.9756V5.26185L68.549 25.662L69.2165 25.7947C69.7315 26.3908 69.1532 25.4388 69.7574 24.9331C70.3644 24.4274 70.4363 23.5346 69.9213 22.9386H69.9185Z" fill="#F3F3F4"/>
</svg>
